<mxfile host="app.diagrams.net" modified="2023-06-26T20:34:33.630Z" agent="Mozilla/5.0 (Windows NT 10.0; Win64; x64) AppleWebKit/537.36 (KHTML, like Gecko) Chrome/114.0.0.0 Safari/537.36 Edg/114.0.1823.58" version="21.5.0" etag="bOJxq22Ie9_p7Dr2OsaF" type="github">
  <diagram name="Page-1" id="Sncd_ihdDrRu2TbWr94D">
    <mxGraphModel>
      <root>
        <mxCell id="0" />
        <mxCell id="1" parent="0" />
      </root>
    </mxGraphModel>
  </diagram>
</mxfile>
